<svg width="188" height="28" viewBox="0 0 188 28" fill="none" xmlns="http://www.w3.org/2000/svg">
<path d="M9.20312 13.75H15.7344C16.8073 13.75 17.7135 13.3906 18.4531 12.6719C19.2031 11.9427 19.5781 10.9167 19.5781 9.59375C19.5781 8.60417 19.1875 7.71875 18.4062 6.9375C17.625 6.14583 16.7344 5.75 15.7344 5.75H6.07812V26H4.95312V4.625H15.7344C17.0469 4.625 18.2031 5.13021 19.2031 6.14062C20.2031 7.15104 20.7031 8.30208 20.7031 9.59375C20.7031 11.1875 20.2188 12.4688 19.25 13.4375C18.2812 14.3958 17.1094 14.875 15.7344 14.875H9.20312V13.75ZM9.20312 16H15.7344C16.8177 16 17.8177 15.7396 18.7344 15.2188C19.6615 14.6875 20.4062 13.9271 20.9688 12.9375C21.5417 11.9479 21.8281 10.8333 21.8281 9.59375C21.8281 7.98958 21.2135 6.57292 19.9844 5.34375C18.7656 4.11458 17.349 3.5 15.7344 3.5H3.82812V26H2.70312V2.375H15.7344C16.9948 2.375 18.1823 2.70833 19.2969 3.375C20.4115 4.04167 21.2969 4.93229 21.9531 6.04688C22.6198 7.16146 22.9531 8.34375 22.9531 9.59375C22.9531 11.0104 22.6198 12.3021 21.9531 13.4688C21.2865 14.625 20.401 15.526 19.2969 16.1719C18.2031 16.8073 17.0156 17.125 15.7344 17.125H9.20312V16ZM9.20312 18.25H15.7344C16.849 18.25 17.9167 18.0312 18.9375 17.5938C19.9583 17.1458 20.8438 16.5469 21.5938 15.7969C22.3542 15.0365 22.9583 14.1198 23.4062 13.0469C23.8542 11.9635 24.0781 10.8125 24.0781 9.59375C24.0781 8.13542 23.6979 6.76562 22.9375 5.48438C22.1771 4.19271 21.151 3.16667 19.8594 2.40625C18.5781 1.63542 17.2031 1.25 15.7344 1.25H1.57812V26H0.453125V0.125H15.7344C17.401 0.125 18.9635 0.5625 20.4219 1.4375C21.8802 2.30208 23.0417 3.46354 23.9062 4.92188C24.7708 6.38021 25.2031 7.9375 25.2031 9.59375C25.2031 11.0729 24.9479 12.4375 24.4375 13.6875C23.9271 14.9271 23.2396 15.9583 22.375 16.7812C21.5104 17.6042 20.5052 18.2448 19.3594 18.7031C18.2135 19.151 17.0052 19.375 15.7344 19.375H9.20312V18.25ZM8.32812 26H7.20312V6.875H15.7344C16.474 6.875 17.1094 7.14583 17.6406 7.6875C18.1823 8.22917 18.4531 8.86458 18.4531 9.59375C18.4531 11.6146 17.5469 12.625 15.7344 12.625H9.20312V11.5H15.7344C16.2344 11.5 16.625 11.3594 16.9062 11.0781C17.1875 10.7969 17.3281 10.3021 17.3281 9.59375C17.3281 9.13542 17.1719 8.75521 16.8594 8.45312C16.5573 8.15104 16.1823 8 15.7344 8H8.32812V26ZM52.4219 0.125H53.5469V26H52.4219V0.125ZM27.6719 0.125H28.7969V26H27.6719V0.125ZM50.1719 0.125H51.2969V26H50.1719V0.125ZM47.9219 0.125H49.0469V26H47.9219V0.125ZM45.6719 0.125H46.7969V26H45.6719V15.8594H35.5469V26H34.4219V0.125H35.5469V10.2344H45.6719V0.125ZM32.1719 0.125H33.2969V26H32.1719V0.125ZM29.9219 0.125H31.0469V26H29.9219V0.125ZM45.6719 14.7344V13.6094H35.5469V14.7344H45.6719ZM45.6719 12.4844V11.3594H35.5469V12.4844H45.6719ZM70.3281 15.2969H68.5469C66.3594 15.2969 64.6771 14.8542 63.5 13.9688C62.3229 13.0729 61.7344 11.8438 61.7344 10.2812C61.7344 8.82292 62.4271 7.60938 63.8125 6.64062C65.1979 5.66146 67.1406 5.17188 69.6406 5.17188C71.3073 5.17188 72.8594 5.40104 74.2969 5.85938C75.7448 6.31771 76.9479 6.96354 77.9062 7.79688L77.0312 8.5C76.1771 7.80208 75.1042 7.26042 73.8125 6.875C72.5208 6.48958 71.1302 6.29688 69.6406 6.29688C67.4427 6.29688 65.7604 6.67188 64.5938 7.42188C63.4375 8.17188 62.8594 9.125 62.8594 10.2812C62.8594 11.5312 63.3333 12.4948 64.2812 13.1719C65.2396 13.8385 66.6615 14.1719 68.5469 14.1719H70.2656C72.4844 14.1719 74.1823 14.6198 75.3594 15.5156C76.5469 16.401 77.1406 17.625 77.1406 19.1875C77.1406 20.6458 76.4479 21.8646 75.0625 22.8438C73.6771 23.8125 71.7344 24.2969 69.2344 24.2969C67.5677 24.2969 66.0104 24.0677 64.5625 23.6094C63.125 23.151 61.9271 22.5052 60.9688 21.6719L61.8438 20.9688C62.6979 21.6667 63.7708 22.2083 65.0625 22.5938C66.3542 22.9792 67.7448 23.1719 69.2344 23.1719C71.4323 23.1719 73.1094 22.7969 74.2656 22.0469C75.4323 21.2969 76.0156 20.3438 76.0156 19.1875C76.0156 17.9375 75.5365 16.9792 74.5781 16.3125C73.6302 15.6354 72.2135 15.2969 70.3281 15.2969ZM70.3281 17.5469H68.5469C65.651 17.5469 63.4167 16.8906 61.8438 15.5781C60.2708 14.2552 59.4844 12.4896 59.4844 10.2812C59.4844 9.27083 59.7083 8.32292 60.1562 7.4375C60.6042 6.55208 61.2448 5.77604 62.0781 5.10938C62.9219 4.43229 63.9948 3.90104 65.2969 3.51562C66.599 3.11979 68.0469 2.92188 69.6406 2.92188C71.651 2.92188 73.5312 3.22917 75.2812 3.84375C77.0312 4.44792 78.4896 5.29688 79.6562 6.39062L78.75 7.0625C77.6875 6.10417 76.3594 5.36458 74.7656 4.84375C73.1719 4.3125 71.4635 4.04688 69.6406 4.04688C66.8281 4.04688 64.6198 4.64062 63.0156 5.82812C61.4115 7.01562 60.6094 8.5 60.6094 10.2812C60.6094 12.1667 61.2969 13.6615 62.6719 14.7656C64.0469 15.8698 66.0052 16.4219 68.5469 16.4219H70.2656C73.349 16.4219 74.8906 17.3438 74.8906 19.1875C74.8906 20.0208 74.4167 20.7083 73.4688 21.25C72.5312 21.7812 71.1198 22.0469 69.2344 22.0469C67.9115 22.0469 66.6823 21.8958 65.5469 21.5938C64.4115 21.2812 63.474 20.8385 62.7344 20.2656L63.625 19.5781C64.9271 20.474 66.7969 20.9219 69.2344 20.9219C70.7969 20.9219 71.9427 20.7604 72.6719 20.4375C73.401 20.1146 73.7656 19.6979 73.7656 19.1875C73.7656 18.5938 73.5104 18.1719 73 17.9219C72.4896 17.6719 71.599 17.5469 70.3281 17.5469ZM70.3281 13.0469H68.5469C65.5052 13.0469 63.9844 12.125 63.9844 10.2812C63.9844 9.44792 64.4531 8.76562 65.3906 8.23438C66.3385 7.69271 67.7552 7.42188 69.6406 7.42188C70.9635 7.42188 72.1927 7.57812 73.3281 7.89062C74.4635 8.19271 75.401 8.63021 76.1406 9.20312L75.25 9.89062C73.9479 8.99479 72.0781 8.54688 69.6406 8.54688C68.0781 8.54688 66.9323 8.70833 66.2031 9.03125C65.474 9.35417 65.1094 9.77083 65.1094 10.2812C65.1094 10.875 65.3646 11.2969 65.875 11.5469C66.3854 11.7969 67.276 11.9219 68.5469 11.9219H70.3281C73.224 11.9219 75.4583 12.5833 77.0312 13.9062C78.6042 15.2188 79.3906 16.9792 79.3906 19.1875C79.3906 20.1979 79.1667 21.1458 78.7188 22.0312C78.2708 22.9167 77.625 23.6979 76.7812 24.375C75.9479 25.0417 74.8802 25.5729 73.5781 25.9688C72.276 26.3542 70.8281 26.5469 69.2344 26.5469C67.224 26.5469 65.3438 26.2448 63.5938 25.6406C61.8438 25.026 60.3854 24.1719 59.2188 23.0781L60.125 22.4062C61.1875 23.3646 62.5156 24.1094 64.1094 24.6406C65.7031 25.1615 67.4115 25.4219 69.2344 25.4219C72.0469 25.4219 74.2552 24.8281 75.8594 23.6406C77.4635 22.4531 78.2656 20.9688 78.2656 19.1875C78.2656 17.3021 77.5781 15.8073 76.2031 14.7031C74.8281 13.599 72.8698 13.0469 70.3281 13.0469ZM85.8438 9.73438H86.9688V26H85.8438V9.73438ZM81.3438 4.625V3.5H98.2188V4.625H81.3438ZM81.3438 6.875V5.75H98.2188V6.875H81.3438ZM81.3438 9.125V8H98.2188V9.125H81.3438ZM92.5938 9.73438H93.7188V26H92.5938V9.73438ZM90.3438 9.73438H91.4688V26H90.3438V9.73438ZM88.0938 9.73438H89.2188V26H88.0938V9.73438ZM115.469 16.0312V3.5H116.594V16.0312C116.594 17.2188 116.135 18.2396 115.219 19.0938C114.312 19.9479 113.219 20.375 111.938 20.375C110.656 20.375 109.557 19.9479 108.641 19.0938C107.734 18.2396 107.281 17.2188 107.281 16.0312V3.5H108.406V16.0312C108.406 16.9167 108.75 17.6771 109.438 18.3125C110.135 18.9375 110.969 19.25 111.938 19.25C112.906 19.25 113.734 18.9375 114.422 18.3125C115.12 17.6771 115.469 16.9167 115.469 16.0312ZM117.719 16.0312V3.5H118.844V16.0312C118.844 17.8542 118.167 19.4115 116.812 20.7031C115.458 21.9844 113.833 22.625 111.938 22.625C110.042 22.625 108.417 21.9844 107.062 20.7031C105.708 19.4115 105.031 17.8542 105.031 16.0312V3.5H106.156V16.0312C106.156 17.5417 106.719 18.8333 107.844 19.9062C108.979 20.9688 110.344 21.5 111.938 21.5C113.521 21.5 114.88 20.9688 116.016 19.9062C117.151 18.8333 117.719 17.5417 117.719 16.0312ZM119.969 16.0312V3.5H121.094V16.0312C121.094 17.625 120.682 19.1042 119.859 20.4688C119.036 21.8229 117.922 22.8958 116.516 23.6875C115.109 24.4792 113.583 24.875 111.938 24.875C110.292 24.875 108.766 24.4792 107.359 23.6875C105.953 22.8958 104.839 21.8229 104.016 20.4688C103.193 19.1042 102.781 17.625 102.781 16.0312V3.5H103.906V16.0312C103.906 17.4167 104.266 18.7031 104.984 19.8906C105.703 21.0781 106.677 22.0208 107.906 22.7188C109.146 23.4062 110.49 23.75 111.938 23.75C113.385 23.75 114.724 23.4062 115.953 22.7188C117.193 22.0208 118.172 21.0781 118.891 19.8906C119.609 18.7031 119.969 17.4167 119.969 16.0312ZM122.219 16.0312V3.5H123.344V16.0312C123.344 17.5312 123.042 18.9688 122.438 20.3438C121.833 21.7083 121.021 22.8854 120 23.875C118.979 24.8646 117.766 25.651 116.359 26.2344C114.953 26.8281 113.479 27.125 111.938 27.125C110.396 27.125 108.922 26.8281 107.516 26.2344C106.109 25.651 104.896 24.8646 103.875 23.875C102.854 22.8854 102.042 21.7083 101.438 20.3438C100.833 18.9688 100.531 17.5312 100.531 16.0312V3.5H101.656V16.0312C101.656 17.8229 102.115 19.4844 103.031 21.0156C103.958 22.5469 105.208 23.7604 106.781 24.6562C108.365 25.5521 110.083 26 111.938 26C113.792 26 115.505 25.5521 117.078 24.6562C118.661 23.7604 119.911 22.5469 120.828 21.0156C121.755 19.4844 122.219 17.8229 122.219 16.0312ZM132.922 19.25V10.25C132.922 10.25 135 10.25 139.156 10.25C140.312 10.25 141.302 10.6875 142.125 11.5625C142.958 12.4375 143.375 13.4896 143.375 14.7188C143.375 15.9896 142.964 17.0625 142.141 17.9375C141.318 18.8125 140.323 19.25 139.156 19.25H132.922ZM134.047 18.125H139.156C140 18.125 140.719 17.7969 141.312 17.1406C141.917 16.4844 142.219 15.6771 142.219 14.7188C142.219 13.8021 141.917 13.0156 141.312 12.3594C140.719 11.7031 140 11.375 139.156 11.375H134.047V18.125ZM131.797 20.375H139.156C140.635 20.375 141.901 19.8281 142.953 18.7344C144.005 17.6302 144.531 16.2917 144.531 14.7188C144.531 13.1771 144 11.8594 142.938 10.7656C141.885 9.67188 140.625 9.125 139.156 9.125H131.797V20.375ZM130.672 21.5V8H139.156C140.938 8 142.469 8.66146 143.75 9.98438C145.042 11.2969 145.688 12.875 145.688 14.7188C145.688 16.6042 145.047 18.2083 143.766 19.5312C142.484 20.8438 140.948 21.5 139.156 21.5H130.672ZM129.547 22.625H139.156C140.531 22.625 141.807 22.276 142.984 21.5781C144.161 20.8802 145.099 19.9219 145.797 18.7031C146.495 17.4844 146.844 16.1562 146.844 14.7188C146.844 13.3125 146.495 12.0052 145.797 10.7969C145.099 9.58854 144.156 8.63542 142.969 7.9375C141.792 7.22917 140.521 6.875 139.156 6.875H129.547V22.625ZM128.422 23.75V5.75H139.156C140.729 5.75 142.193 6.15104 143.547 6.95312C144.911 7.75521 145.995 8.84896 146.797 10.2344C147.599 11.6094 148 13.1042 148 14.7188C148 16.3542 147.599 17.8698 146.797 19.2656C145.995 20.651 144.911 21.7448 143.547 22.5469C142.193 23.349 140.729 23.75 139.156 23.75H128.422ZM127.297 24.875H139.156C140.938 24.875 142.594 24.4271 144.125 23.5312C145.656 22.625 146.875 21.3906 147.781 19.8281C148.698 18.2656 149.156 16.5625 149.156 14.7188C149.156 12.9062 148.698 11.224 147.781 9.67188C146.875 8.10938 145.651 6.88021 144.109 5.98438C142.578 5.07812 140.927 4.625 139.156 4.625H127.297V24.875ZM139.156 26H126.172V3.5H139.156C141.135 3.5 142.979 4.00521 144.688 5.01562C146.406 6.01562 147.771 7.38021 148.781 9.10938C149.802 10.8281 150.312 12.6979 150.312 14.7188C150.312 16.25 150.01 17.7135 149.406 19.1094C148.812 20.5052 148.01 21.7083 147 22.7188C146 23.7188 144.812 24.5156 143.438 25.1094C142.062 25.7031 140.635 26 139.156 26ZM159.578 3.5H160.703V26H159.578V3.5ZM157.328 3.5H158.453V26H157.328V3.5ZM155.078 3.5H156.203V26H155.078V3.5ZM152.828 3.5H153.953V26H152.828V3.5ZM172.234 11.5781C171.359 12.4531 170.922 13.5104 170.922 14.75C170.922 15.9896 171.359 17.0521 172.234 17.9375C173.12 18.8125 174.182 19.25 175.422 19.25C176.661 19.25 177.719 18.8125 178.594 17.9375C179.479 17.0521 179.922 15.9896 179.922 14.75C179.922 13.5104 179.479 12.4531 178.594 11.5781C177.719 10.6927 176.661 10.25 175.422 10.25C174.182 10.25 173.12 10.6927 172.234 11.5781ZM171.438 18.7344C170.344 17.6302 169.797 16.3021 169.797 14.75C169.797 13.1979 170.344 11.875 171.438 10.7812C172.542 9.67708 173.87 9.125 175.422 9.125C176.974 9.125 178.297 9.67708 179.391 10.7812C180.495 11.875 181.047 13.1979 181.047 14.75C181.047 16.3021 180.495 17.6302 179.391 18.7344C178.297 19.8281 176.974 20.375 175.422 20.375C173.87 20.375 172.542 19.8281 171.438 18.7344ZM170.641 9.98438C169.328 11.3073 168.672 12.8958 168.672 14.75C168.672 16.6042 169.328 18.1927 170.641 19.5156C171.964 20.8385 173.557 21.5 175.422 21.5C177.286 21.5 178.875 20.8385 180.188 19.5156C181.51 18.1927 182.172 16.6042 182.172 14.75C182.172 12.8958 181.51 11.3073 180.188 9.98438C178.875 8.66146 177.286 8 175.422 8C173.557 8 171.964 8.66146 170.641 9.98438ZM168.594 18.7031C167.896 17.4948 167.547 16.1771 167.547 14.75C167.547 13.3229 167.896 12.0052 168.594 10.7969C169.302 9.58854 170.26 8.63542 171.469 7.9375C172.677 7.22917 173.995 6.875 175.422 6.875C176.849 6.875 178.167 7.22917 179.375 7.9375C180.583 8.63542 181.536 9.58854 182.234 10.7969C182.943 12.0052 183.297 13.3229 183.297 14.75C183.297 16.1771 182.943 17.4948 182.234 18.7031C181.536 19.9115 180.583 20.8698 179.375 21.5781C178.167 22.276 176.849 22.625 175.422 22.625C173.995 22.625 172.677 22.276 171.469 21.5781C170.26 20.8698 169.302 19.9115 168.594 18.7031ZM167.125 11.2656C166.656 12.3698 166.422 13.5312 166.422 14.75C166.422 15.9688 166.656 17.1354 167.125 18.25C167.604 19.3542 168.245 20.3125 169.047 21.125C169.859 21.9271 170.818 22.5677 171.922 23.0469C173.036 23.5156 174.203 23.75 175.422 23.75C176.641 23.75 177.802 23.5156 178.906 23.0469C180.021 22.5677 180.979 21.9271 181.781 21.125C182.594 20.3125 183.234 19.3542 183.703 18.25C184.182 17.1354 184.422 15.9688 184.422 14.75C184.422 13.5312 184.182 12.3698 183.703 11.2656C183.234 10.151 182.594 9.19271 181.781 8.39062C180.979 7.57812 180.021 6.9375 178.906 6.46875C177.802 5.98958 176.641 5.75 175.422 5.75C174.203 5.75 173.036 5.98958 171.922 6.46875C170.818 6.9375 169.859 7.57812 169.047 8.39062C168.245 9.19271 167.604 10.151 167.125 11.2656ZM166.094 18.6875C165.562 17.4375 165.297 16.125 165.297 14.75C165.297 13.375 165.562 12.0625 166.094 10.8125C166.635 9.5625 167.354 8.48958 168.25 7.59375C169.156 6.6875 170.234 5.96875 171.484 5.4375C172.734 4.89583 174.047 4.625 175.422 4.625C176.797 4.625 178.109 4.89583 179.359 5.4375C180.609 5.96875 181.682 6.6875 182.578 7.59375C183.484 8.48958 184.203 9.5625 184.734 10.8125C185.276 12.0625 185.547 13.375 185.547 14.75C185.547 16.125 185.276 17.4375 184.734 18.6875C184.203 19.9375 183.484 21.0156 182.578 21.9219C181.682 22.8177 180.609 23.5365 179.359 24.0781C178.109 24.6094 176.797 24.875 175.422 24.875C174.047 24.875 172.734 24.6094 171.484 24.0781C170.234 23.5365 169.156 22.8177 168.25 21.9219C167.354 21.0156 166.635 19.9375 166.094 18.6875ZM165.062 10.3906C164.469 11.776 164.172 13.2292 164.172 14.75C164.172 16.2708 164.469 17.7292 165.062 19.125C165.656 20.5104 166.453 21.7083 167.453 22.7188C168.464 23.7188 169.661 24.5156 171.047 25.1094C172.443 25.7031 173.901 26 175.422 26C176.943 26 178.396 25.7031 179.781 25.1094C181.177 24.5156 182.375 23.7188 183.375 22.7188C184.385 21.7083 185.188 20.5104 185.781 19.125C186.375 17.7292 186.672 16.2708 186.672 14.75C186.672 13.2292 186.375 11.776 185.781 10.3906C185.188 8.99479 184.385 7.79688 183.375 6.79688C182.375 5.78646 181.177 4.98438 179.781 4.39062C178.396 3.79688 176.943 3.5 175.422 3.5C173.901 3.5 172.443 3.79688 171.047 4.39062C169.661 4.98438 168.464 5.78646 167.453 6.79688C166.453 7.79688 165.656 8.99479 165.062 10.3906ZM164.031 19.5625C163.375 18.0312 163.047 16.4271 163.047 14.75C163.047 13.0729 163.375 11.474 164.031 9.95312C164.688 8.42188 165.568 7.10417 166.672 6C167.776 4.89583 169.089 4.01562 170.609 3.35938C172.141 2.70312 173.745 2.375 175.422 2.375C177.099 2.375 178.698 2.70312 180.219 3.35938C181.75 4.01562 183.068 4.89583 184.172 6C185.276 7.10417 186.156 8.42188 186.812 9.95312C187.469 11.474 187.797 13.0729 187.797 14.75C187.797 16.4271 187.469 18.0312 186.812 19.5625C186.156 21.0833 185.276 22.3958 184.172 23.5C183.068 24.6042 181.75 25.4844 180.219 26.1406C178.698 26.7969 177.099 27.125 175.422 27.125C173.745 27.125 172.141 26.7969 170.609 26.1406C169.089 25.4844 167.776 24.6042 166.672 23.5C165.568 22.3958 164.688 21.0833 164.031 19.5625Z" fill="white"/>
</svg>
