<svg width="65" height="65" viewBox="0 0 65 65" fill="none" xmlns="http://www.w3.org/2000/svg">
<rect width="65" height="65" fill="black"/>
<path d="M14.2031 31.75H20.7344C21.8073 31.75 22.7135 31.3906 23.4531 30.6719C24.2031 29.9427 24.5781 28.9167 24.5781 27.5938C24.5781 26.6042 24.1875 25.7188 23.4062 24.9375C22.625 24.1458 21.7344 23.75 20.7344 23.75H11.0781V44H9.95312V22.625H20.7344C22.0469 22.625 23.2031 23.1302 24.2031 24.1406C25.2031 25.151 25.7031 26.3021 25.7031 27.5938C25.7031 29.1875 25.2188 30.4688 24.25 31.4375C23.2812 32.3958 22.1094 32.875 20.7344 32.875H14.2031V31.75ZM14.2031 34H20.7344C21.8177 34 22.8177 33.7396 23.7344 33.2188C24.6615 32.6875 25.4062 31.9271 25.9688 30.9375C26.5417 29.9479 26.8281 28.8333 26.8281 27.5938C26.8281 25.9896 26.2135 24.5729 24.9844 23.3438C23.7656 22.1146 22.349 21.5 20.7344 21.5H8.82812V44H7.70312V20.375H20.7344C21.9948 20.375 23.1823 20.7083 24.2969 21.375C25.4115 22.0417 26.2969 22.9323 26.9531 24.0469C27.6198 25.1615 27.9531 26.3438 27.9531 27.5938C27.9531 29.0104 27.6198 30.3021 26.9531 31.4688C26.2865 32.625 25.401 33.526 24.2969 34.1719C23.2031 34.8073 22.0156 35.125 20.7344 35.125H14.2031V34ZM14.2031 36.25H20.7344C21.849 36.25 22.9167 36.0312 23.9375 35.5938C24.9583 35.1458 25.8438 34.5469 26.5938 33.7969C27.3542 33.0365 27.9583 32.1198 28.4062 31.0469C28.8542 29.9635 29.0781 28.8125 29.0781 27.5938C29.0781 26.1354 28.6979 24.7656 27.9375 23.4844C27.1771 22.1927 26.151 21.1667 24.8594 20.4062C23.5781 19.6354 22.2031 19.25 20.7344 19.25H6.57812V44H5.45312V18.125H20.7344C22.401 18.125 23.9635 18.5625 25.4219 19.4375C26.8802 20.3021 28.0417 21.4635 28.9062 22.9219C29.7708 24.3802 30.2031 25.9375 30.2031 27.5938C30.2031 29.0729 29.9479 30.4375 29.4375 31.6875C28.9271 32.9271 28.2396 33.9583 27.375 34.7812C26.5104 35.6042 25.5052 36.2448 24.3594 36.7031C23.2135 37.151 22.0052 37.375 20.7344 37.375H14.2031V36.25ZM13.3281 44H12.2031V24.875H20.7344C21.474 24.875 22.1094 25.1458 22.6406 25.6875C23.1823 26.2292 23.4531 26.8646 23.4531 27.5938C23.4531 29.6146 22.5469 30.625 20.7344 30.625H14.2031V29.5H20.7344C21.2344 29.5 21.625 29.3594 21.9062 29.0781C22.1875 28.7969 22.3281 28.3021 22.3281 27.5938C22.3281 27.1354 22.1719 26.7552 21.8594 26.4531C21.5573 26.151 21.1823 26 20.7344 26H13.3281V44ZM57.4219 18.125H58.5469V44H57.4219V18.125ZM32.6719 18.125H33.7969V44H32.6719V18.125ZM55.1719 18.125H56.2969V44H55.1719V18.125ZM52.9219 18.125H54.0469V44H52.9219V18.125ZM50.6719 18.125H51.7969V44H50.6719V33.8594H40.5469V44H39.4219V18.125H40.5469V28.2344H50.6719V18.125ZM37.1719 18.125H38.2969V44H37.1719V18.125ZM34.9219 18.125H36.0469V44H34.9219V18.125ZM50.6719 32.7344V31.6094H40.5469V32.7344H50.6719ZM50.6719 30.4844V29.3594H40.5469V30.4844H50.6719Z" fill="white"/>
</svg>
